<?xml version="1.0" encoding="UTF-8" standalone="no"?>
<!-- Created with Inkscape (http://www.inkscape.org/) -->

<svg
   xmlns:dc="http://purl.org/dc/elements/1.1/"
   xmlns:cc="http://creativecommons.org/ns#"
   xmlns:rdf="http://www.w3.org/1999/02/22-rdf-syntax-ns#"
   xmlns:svg="http://www.w3.org/2000/svg"
   xmlns="http://www.w3.org/2000/svg"
   xmlns:sodipodi="http://sodipodi.sourceforge.net/DTD/sodipodi-0.dtd"
   xmlns:inkscape="http://www.inkscape.org/namespaces/inkscape"
   width="210mm"
   height="297mm"
   viewBox="0 0 210 297"
   version="1.1"
   id="svg8"
   inkscape:version="0.92.1 r15371"
   sodipodi:docname="banner.svg">
  <defs
     id="defs2">
    <style
       type="text/css"
       id="style29">

    @font-face { font-family:&quot;CastleT&quot;;src:url(&quot;#FontID0&quot;) format(svg)}
    .fil1 {fill:white}
    .fil0 {fill:#0093DD}
    .fnt1 {font-weight:normal;font-size:40.3513;font-family:'CastleT'}
    .fnt0 {font-weight:normal;font-size:40.7083;font-family:'CastleT'}

  </style>
  </defs>
  <sodipodi:namedview
     id="base"
     pagecolor="#ffffff"
     bordercolor="#666666"
     borderopacity="1.0"
     inkscape:pageopacity="0.0"
     inkscape:pageshadow="2"
     inkscape:zoom="0.70710678"
     inkscape:cx="86.193062"
     inkscape:cy="651.11175"
     inkscape:document-units="mm"
     inkscape:current-layer="layer1"
     showgrid="false"
     inkscape:snap-grids="true"
     inkscape:window-width="2554"
     inkscape:window-height="1388"
     inkscape:window-x="0"
     inkscape:window-y="24"
     inkscape:window-maximized="0"
     inkscape:lockguides="false"
     showguides="true"
     inkscape:guide-bbox="true"
     inkscape:snap-to-guides="true" />
  <metadata
     id="metadata5">
    <rdf:RDF>
      <cc:Work
         rdf:about="">
        <dc:format>image/svg+xml</dc:format>
        <dc:type
           rdf:resource="http://purl.org/dc/dcmitype/StillImage" />
        <dc:title />
      </cc:Work>
    </rdf:RDF>
  </metadata>
  <g
     inkscape:label="Layer 1"
     inkscape:groupmode="layer"
     id="layer1">
    <g
       transform="matrix(0.85495293,0,0,0.85495293,7.5186747,-74.376709)"
       id="banner-full"
       inkscape:label="banner-full"
       inkscape:export-xdpi="151.92"
       inkscape:export-ydpi="151.92">
      <rect
         style="clip-rule:evenodd;fill:#f7f7f7;fill-opacity:1;fill-rule:evenodd;stroke:none;stroke-width:0.26458332;image-rendering:optimizeQuality;shape-rendering:geometricPrecision;text-rendering:geometricPrecision"
         id="rect5024"
         width="234.66263"
         height="31.270552"
         x="-5.3079839"
         y="93.239075" />
      <path
         id="path4161-3-3"
         style="font-weight:normal;font-size:40.35129929px;font-family:CastleT;clip-rule:evenodd;fill:#0093dd;fill-opacity:1;fill-rule:evenodd;stroke-width:3.9181118;image-rendering:optimizeQuality;shape-rendering:geometricPrecision;text-rendering:geometricPrecision"
         d="m 66.379648,93.248009 c 69.680832,1.330784 69.771062,10.717721 88.167562,21.954811 14.05202,8.58337 25.56583,9.30681 74.80743,9.30681 V 93.239075 c -18.49181,0.04133 -104.69463,0.0089 -162.974992,0.0089 z"
         inkscape:connector-curvature="0"
         sodipodi:nodetypes="cscccc" />
      <path
         inkscape:connector-curvature="0"
         id="rect5024-5"
         transform="scale(0.26458333)"
         d="m -20.0625,352.40039 v 118.1875 h 177.73828 c 4.60768,-4.50064 5.0368,-3.92045 -0.51953,-8.98828 5.21675,-5.21911 5.80832,-4.19833 0,-9.49609 5.21745,-5.21749 5.80794,-4.19864 0,-9.4961 5.2168,-5.2168 5.8055,-4.19653 0,-9.49414 5.21676,-5.21907 5.80831,-4.19833 0,-9.49609 5.21746,-5.21745 5.80794,-4.19867 0,-9.4961 5.21633,-5.21635 5.8062,-4.19845 0,-9.49414 5.21674,-5.21907 5.80833,-4.19836 0,-9.49609 5.21745,-5.21745 5.80795,-4.19867 0,-9.49609 5.21679,-5.21681 5.80551,-4.19655 0,-9.49415 5.21674,-5.21907 5.80833,-4.19833 0,-9.49609 5.21745,-5.21745 5.80794,-4.19667 0,-9.49414 l 4.39453,-4.39453 0.35547,-0.35547 z"
         style="clip-rule:evenodd;fill:#0093dd;fill-opacity:1;fill-rule:evenodd;stroke:none;stroke-width:0.90007085;image-rendering:optimizeQuality;shape-rendering:geometricPrecision;text-rendering:geometricPrecision" />
      <text
         id="text4536"
         y="102.57482"
         x="225.84372"
         style="font-style:normal;font-variant:normal;font-weight:normal;font-stretch:normal;font-size:5.64444447px;line-height:125%;font-family:'Libre Baskerville';-inkscape-font-specification:'Libre Baskerville';text-align:end;letter-spacing:0px;word-spacing:0px;text-anchor:end;fill:#f7f7f7;fill-opacity:1;stroke:none;stroke-width:0.26458332px;stroke-linecap:butt;stroke-linejoin:miter;stroke-opacity:1"
         xml:space="preserve"><tspan
           id="tspan4540"
           style="font-style:normal;font-variant:normal;font-weight:600;font-stretch:normal;font-size:6.3499999px;font-family:Raleway;-inkscape-font-specification:'Raleway Semi-Bold';text-align:end;text-anchor:end;fill:#f7f7f7;fill-opacity:1;stroke-width:0.26458332px"
           y="102.57482"
           x="225.9231"
           sodipodi:role="line">Trusted by <tspan
   id="tspan4668"
   style="font-style:normal;font-variant:normal;font-weight:800;font-stretch:normal;font-family:Raleway;-inkscape-font-specification:'Raleway Ultra-Bold';letter-spacing:0.079375px;fill:#f7f7f7;fill-opacity:1">activists,</tspan></tspan><tspan
           id="tspan4612"
           style="font-style:normal;font-variant:normal;font-weight:600;font-stretch:normal;font-size:6.3499999px;font-family:Raleway;-inkscape-font-specification:'Raleway Semi-Bold';text-align:end;text-anchor:end;fill:#f7f7f7;fill-opacity:1;stroke-width:0.26458332px"
           y="109.94651"
           x="225.9231"
           sodipodi:role="line"><tspan
   id="tspan4672"
   style="font-style:normal;font-variant:normal;font-weight:800;font-stretch:normal;font-family:Raleway;-inkscape-font-specification:'Raleway Ultra-Bold';letter-spacing:0.079375px;fill:#f7f7f7;fill-opacity:1">journalists</tspan> and <tspan
   id="tspan4674"
   style="font-style:normal;font-variant:normal;font-weight:800;font-stretch:normal;font-family:Raleway;-inkscape-font-specification:'Raleway Ultra-Bold';letter-spacing:0.079375px;fill:#f7f7f7;fill-opacity:1">lawyers</tspan></tspan><tspan
           id="tspan4631"
           style="font-style:normal;font-variant:normal;font-weight:600;font-stretch:normal;font-size:6.3499999px;font-family:Raleway;-inkscape-font-specification:'Raleway Semi-Bold';text-align:end;text-anchor:end;fill:#f7f7f7;fill-opacity:1;stroke-width:0.26458332px"
           y="117.31821"
           x="225.84372"
           sodipodi:role="line">around the world.</tspan></text>
      <path
         id="path4161-6-7-4"
         style="font-weight:normal;font-size:40.35129929px;font-family:CastleT;clip-rule:evenodd;fill:#0093dd;fill-opacity:1;fill-rule:evenodd;stroke-width:0.52691233;image-rendering:optimizeQuality;shape-rendering:geometricPrecision;text-rendering:geometricPrecision"
         d="m 133.24369,108.8323 v 1.7545 c -1.30117,-0.8859 -2.58849,-1.32885 -3.86195,-1.32885 -1.38422,0 -2.50199,0.47063 -3.35328,1.4119 -0.53292,0.58829 -0.89627,1.23542 -1.09007,1.94137 -0.24223,0.85129 -0.36336,1.79256 -0.36336,2.82381 0,2.12477 0.47755,3.70624 1.43268,4.7444 0.80283,0.87898 1.8583,1.31847 3.16639,1.31847 0.76132,0 1.49148,-0.19725 2.19052,-0.59175 v -5.53342 c 0,-0.25607 -0.0277,-0.48447 -0.0831,-0.68518 h 2.47083 c -0.0554,0.21455 -0.083,0.44295 -0.083,0.68518 v 5.45036 c 0.007,0.31838 0.0519,0.60214 0.13496,0.8513 -1.27349,0.41526 -2.20438,0.68172 -2.79266,0.79938 -0.58139,0.11766 -1.2804,0.17649 -2.09709,0.17649 -1.47419,0 -2.67846,-0.263 -3.6128,-0.789 -1.12122,-0.62982 -1.96214,-1.55379 -2.52275,-2.7719 -0.4914,-1.06585 -0.7371,-2.29434 -0.7371,-3.68548 0,-2.47083 0.76825,-4.37413 2.30473,-5.7099 1.23888,-1.08662 2.88263,-1.62991 4.93128,-1.62991 1.24578,0 2.56771,0.25608 3.96577,0.76823 z m -19.07105,7.51631 v 5.40883 c 0,0.20071 0.0346,0.42911 0.10381,0.68519 h -2.56426 c 0.0623,-0.21456 0.0934,-0.44295 0.0934,-0.68519 v -12.79018 c 0,-0.25608 -0.0311,-0.48794 -0.0934,-0.69555 h 4.53677 c 1.10737,0 2.04518,0.22146 2.81343,0.66441 1.17658,0.69211 1.76487,1.77526 1.76487,3.24945 0,1.63338 -0.71633,2.80996 -2.149,3.52976 -0.83745,0.42219 -1.83755,0.63328 -3.00029,0.63328 z m 0,-1.09007 h 1.26656 c 0.6921,0 1.24925,-0.12458 1.67143,-0.37374 0.40143,-0.24224 0.7198,-0.60214 0.95512,-1.07969 0.23531,-0.47756 0.35297,-1.00702 0.35297,-1.5884 0,-0.89974 -0.24916,-1.60569 -0.74748,-2.11785 -0.49139,-0.51908 -1.16966,-0.77862 -2.0348,-0.77862 h -1.4638 z m -7.52669,7.18409 v -1.51572 c -0.39451,0.53984 -0.77517,0.92743 -1.14198,1.16274 -0.58138,0.36682 -1.31155,0.55023 -2.19053,0.55023 -1.18351,0 -2.09363,-0.33568 -2.73037,-1.00702 -0.52601,-0.55369 -0.789023,-1.35307 -0.789023,-2.39815 v -7.1841 c 0,-0.23532 -0.0277,-0.46025 -0.0831,-0.67481 h 2.335883 c -0.0554,0.1938 -0.0831,0.41873 -0.0831,0.67481 v 6.94532 c 0,0.59521 0.14188,1.06931 0.42564,1.42228 0.37374,0.44987 0.93435,0.67481 1.68183,0.67481 0.7544,0 1.36345,-0.21456 1.82717,-0.64366 0.47063,-0.43603 0.70595,-1.0001 0.70595,-1.69221 v -6.70654 c 0,-0.24224 -0.0277,-0.46718 -0.0831,-0.67481 h 2.33586 c -0.0554,0.17995 -0.0831,0.40489 -0.0831,0.67481 v 9.70683 c 0,0.22148 0.0277,0.44987 0.0831,0.68519 z M 87.834416,111.3758 h 2.21128 v 1.54687 c 0.33222,-0.51909 0.66789,-0.89974 1.00702,-1.14198 0.63674,-0.44295 1.44305,-0.66443 2.41893,-0.66443 1.25963,0 2.21474,0.38412 2.86532,1.15237 0.41527,0.49139 0.6229,1.17658 0.6229,2.05556 v 7.43325 c 0,0.2284 0.0277,0.45679 0.0831,0.68519 h -2.33587 c 0.0554,-0.17303 0.0831,-0.40142 0.0831,-0.68519 v -7.11142 c 0,-0.62982 -0.18341,-1.11776 -0.55023,-1.46381 -0.36682,-0.34606 -0.88936,-0.51909 -1.56762,-0.51909 -0.84438,0 -1.48112,0.23532 -1.91022,0.70596 -0.44988,0.49831 -0.67481,1.13852 -0.67481,1.9206 v 6.46776 c 0,0.24224 0.0277,0.47063 0.0831,0.68519 h -2.33586 c 0.0554,-0.20071 0.0831,-0.42911 0.0831,-0.68519 v -9.70683 c 0,-0.23532 -0.0277,-0.46025 -0.0831,-0.67481 z m -3.05221,-2.5435 v 1.7545 c -1.30116,-0.8859 -2.58849,-1.32885 -3.86197,-1.32885 -1.38421,0 -2.50197,0.47063 -3.35327,1.4119 -0.53292,0.58829 -0.89628,1.23542 -1.09007,1.94137 -0.24224,0.85129 -0.36336,1.79256 -0.36336,2.82381 0,2.12477 0.47756,3.70624 1.43267,4.7444 0.80285,0.87898 1.85832,1.31847 3.1664,1.31847 0.76132,0 1.4915,-0.19725 2.19052,-0.59175 v -5.53342 c 0,-0.25607 -0.0277,-0.48447 -0.0831,-0.68518 h 2.47083 c -0.0554,0.21455 -0.0831,0.44295 -0.0831,0.68518 v 5.45036 c 0.007,0.31838 0.0519,0.60214 0.13496,0.8513 -1.27348,0.41526 -2.20437,0.68172 -2.79266,0.79938 -0.58137,0.11766 -1.2804,0.17649 -2.0971,0.17649 -1.47419,0 -2.67845,-0.263 -3.6128,-0.789 -1.12122,-0.62982 -1.96213,-1.55379 -2.52274,-2.7719 -0.4914,-1.06585 -0.7371,-2.29434 -0.7371,-3.68548 0,-2.47083 0.76825,-4.37413 2.30473,-5.7099 1.23887,-1.08662 2.88263,-1.62991 4.93127,-1.62991 1.2458,0 2.56773,0.25608 3.96579,0.76823 z"
         inkscape:connector-curvature="0"
         sodipodi:nodetypes="ccsccscscsccscccsccscsccsccsscscscsccscsscscccccscssccsscscssccssccccccscssccsssscssccsscccsccscscsccscccsccscsc" />
      <path
         id="path4161-3-0-0"
         style="font-weight:normal;font-size:40.35129929px;font-family:CastleT;clip-rule:evenodd;fill:#0093dd;fill-opacity:1;fill-rule:evenodd;stroke-width:0.51351911;image-rendering:optimizeQuality;shape-rendering:geometricPrecision;text-rendering:geometricPrecision"
         d="m 48.736304,108.39215 1.457727,5.3e-4 9.82e-4,-4.38798 c 0.0011,-4.919043 3.991421,-8.907421 8.91042,-8.906262 4.919156,0.0011 8.907282,3.991423 8.906122,8.910482 l -8.01e-4,4.34463 c -0.02131,0.0147 -0.042,0.029 -0.06265,0.0432 h 1.37e-4 l -0.01323,0.01 -0.0016,8.6e-4 -0.0016,8.4e-4 -0.0016,8.5e-4 -0.007,0.005 -0.0078,0.006 -0.0016,8.5e-4 -0.0089,0.006 -4.06e-4,3.2e-4 -0.0035,0.002 -0.0021,0.002 -0.0039,0.004 -9.82e-4,5e-4 -0.0054,0.004 -5.3e-5,-1e-5 -0.0054,0.004 -0.007,0.005 -0.0035,0.003 -0.003,0.002 -0.0026,0.002 -0.0078,0.006 -0.0078,0.006 -4.09e-4,2.4e-4 -0.0097,0.007 -0.0021,0.002 -0.01247,0.008 -9.82e-4,5e-4 -0.005,0.004 -1.32e-4,1.2e-4 -0.0021,8.7e-4 -0.0158,0.0109 -0.0026,0.002 -0.0035,0.003 -0.0016,8.5e-4 -9.81e-4,8.6e-4 -0.0085,0.006 -9.82e-4,4.9e-4 -2.73e-4,1.4e-4 -5.13e-4,3e-4 -0.0094,0.006 -0.0021,8.6e-4 -0.003,0.002 -0.003,0.002 -0.0021,0.002 -0.005,0.004 -0.0048,0.004 -4.05e-4,1.5e-4 -0.005,0.004 -5.16e-4,3.6e-4 -0.0046,0.003 -0.0016,8.6e-4 -0.0035,0.003 -0.0026,0.002 -0.0026,0.002 -0.003,0.002 -0.0021,8.8e-4 -0.02702,0.0176 -0.006,0.004 -0.0016,8.5e-4 -0.01439,0.009 -9.81e-4,5.2e-4 -0.0162,0.01 -4.08e-4,2.6e-4 -9.82e-4,5e-4 -0.0046,0.003 -2.65e-4,1.4e-4 -0.0048,0.004 -5.18e-4,3.1e-4 -0.0041,0.003 -0.0041,0.003 -5.08e-4,3.6e-4 -0.0021,0.002 -0.007,0.005 -0.0035,0.003 -0.0054,0.004 -0.01603,0.01 -0.01603,0.01 -0.01603,0.009 -0.01603,0.01 -0.03222,0.019 -0.01641,0.009 -0.0162,0.0101 -0.007,0.005 -0.0427,0.0242 -0.017,0.01 -0.017,0.01 -0.017,0.01 -0.02215,0.013 -0.02867,0.0162 -0.017,0.01 -0.06636,0.037 -0.003,0.002 -0.0174,0.01 -0.01739,0.01 -0.0041,0.002 -0.02334,0.0126 -0.05218,0.0289 -0.02474,0.0132 c -0.0253,0.0135 -0.05056,0.027 -0.07614,0.0407 l -0.0065,0.004 -0.01188,0.006 -0.03719,0.0194 -0.01881,0.01 -0.003,0.002 -0.03422,0.018 -1.32e-4,10e-5 -0.01882,0.01 -0.0054,0.003 -0.03265,0.0171 -0.0193,0.01 -0.01781,0.009 c -0.02375,0.0123 -0.04807,0.0248 -0.07275,0.037 l -0.0198,0.0103 c -0.0287,0.0146 -0.05769,0.0294 -0.08704,0.0435 l -2.76e-4,10e-5 c -0.0282,0.0141 -0.0562,0.0279 -0.08481,0.042 l -0.0282,0.0137 c -0.03117,0.0151 -0.06229,0.0303 -0.09396,0.0454 l -1.35e-4,1e-5 c -1.767677,0.84478 -4.604986,1.74327 -9.990968,2.12862 -3.85839,0.27629 -6.197818,1.97394 -7.723915,4.02305 l 0.0018,-6.99281 z m 5.561053,9.3e-4 9.609948,0.002 9.82e-4,-4.38797 c 5.06e-4,-2.6534 -2.150515,-4.805565 -4.803818,-4.80619 -2.653249,-5.03e-4 -4.805505,2.15052 -4.806124,4.80392 z m 12.448361,0.695 c -0.0287,0.0146 -0.05769,0.0288 -0.08704,0.0435 M 63.140469,97.254285 c -1.142209,-0.682894 -2.47763,-1.075943 -3.90475,-1.076279 -3.911889,-6.89e-4 -7.137067,2.945656 -7.57661,6.739914 1.147637,-3.5876 4.509896,-6.185783 8.477757,-6.18484 1.053998,2.51e-4 2.065227,0.184331 3.003603,0.521205 z m 6.32757,12.822295 -0.0029,12.57368 -17.737202,-0.005 c 1.955532,-1.08667 3.412716,-0.97561 5.826185,-0.89871 3.286657,0.10474 6.918637,-1.2713 8.705137,-3.09397 1.786705,-1.82287 -0.161536,-0.43145 -2.183706,0.081 -2.022461,0.51217 -5.935645,0.56584 -8.551197,-0.12233 8.238363,0.11429 11.445249,-2.54995 13.266597,-4.93621 1.821243,-2.38619 -0.787383,-0.41453 -2.477212,0.40782 -1.689732,0.8231 -4.636587,1.41077 -7.876739,0.98095 4.904727,-0.009 8.637197,-2.45915 11.031105,-4.98807 z"
         inkscape:connector-curvature="0"
         sodipodi:nodetypes="ccsssccccccccccccccccccccccccccccccccccccccccccccccccccccccccccccccccccccccccccccccccccccccccccccccccccccccccccccccccccccccccccccccccsssccccscscccccccccccc" />
      <text
         transform="scale(1.0610964,0.94242144)"
         id="text4513"
         y="105.98806"
         x="1.1023052"
         style="font-style:normal;font-variant:normal;font-weight:normal;font-stretch:normal;font-size:6.73796225px;line-height:125%;font-family:Bungee;-inkscape-font-specification:Bungee;letter-spacing:0px;word-spacing:0px;fill:#f7f7f7;fill-opacity:1;stroke:none;stroke-width:0.28074843px;stroke-linecap:butt;stroke-linejoin:miter;stroke-opacity:1"
         xml:space="preserve"><tspan
           id="tspan4539"
           style="fill:#f7f7f7;fill-opacity:1;stroke-width:0.28074843px"
           y="105.98806"
           x="1.1023052"
           sodipodi:role="line">support</tspan></text>
      <text
         transform="scale(1.1472696,0.87163471)"
         id="text4550"
         y="121.31692"
         x="0.9147917"
         style="font-style:normal;font-variant:normal;font-weight:normal;font-stretch:normal;font-size:7.28516245px;line-height:125%;font-family:Bungee;-inkscape-font-specification:Bungee;letter-spacing:0px;word-spacing:0px;fill:#f7f7f7;fill-opacity:1;stroke:none;stroke-width:0.3035484px;stroke-linecap:butt;stroke-linejoin:miter;stroke-opacity:1"
         xml:space="preserve"><tspan
           id="tspan4552"
           style="fill:#f7f7f7;fill-opacity:1;stroke-width:0.3035484px"
           y="121.31692"
           x="0.9147917"
           sodipodi:role="line">online</tspan></text>
      <text
         transform="scale(0.79200694,1.2626152)"
         id="text4558"
         y="91.832733"
         x="1.3033004"
         style="font-style:normal;font-variant:normal;font-weight:normal;font-stretch:normal;font-size:9.18701935px;line-height:125%;font-family:Bungee;-inkscape-font-specification:Bungee;letter-spacing:0px;word-spacing:0px;fill:#f7f7f7;fill-opacity:1;stroke:none;stroke-width:0.38279247px;stroke-linecap:butt;stroke-linejoin:miter;stroke-opacity:1"
         xml:space="preserve"><tspan
           style="fill:#f7f7f7;fill-opacity:1;stroke-width:0.38279247px"
           y="91.832733"
           x="1.3033004"
           id="tspan4556"
           sodipodi:role="line">privacy</tspan></text>
      <text
         transform="scale(1.4412105,0.69386117)"
         id="text4562"
         y="176.64047"
         x="0.43311256"
         style="font-style:normal;font-variant:normal;font-weight:normal;font-stretch:normal;font-size:9.15168762px;line-height:125%;font-family:Bungee;-inkscape-font-specification:Bungee;letter-spacing:0px;word-spacing:0px;fill:#f7f7f7;fill-opacity:1;stroke:none;stroke-width:0.38132027px;stroke-linecap:butt;stroke-linejoin:miter;stroke-opacity:1"
         xml:space="preserve"><tspan
           style="fill:#f7f7f7;fill-opacity:1;stroke-width:0.38132027px"
           y="176.64047"
           x="0.43311256"
           id="tspan4560"
           sodipodi:role="line">now!</tspan></text>
    </g>
    <flowRoot
       xml:space="preserve"
       id="flowRoot4564"
       style="fill:black;stroke:none;stroke-opacity:1;stroke-width:1px;stroke-linejoin:miter;stroke-linecap:butt;fill-opacity:1;font-family:Bungee;font-style:normal;font-weight:normal;font-size:24px;line-height:125%;letter-spacing:0px;word-spacing:0px;-inkscape-font-specification:Bungee;font-stretch:normal;font-variant:normal"><flowRegion
         id="flowRegion4566"><rect
           id="rect4568"
           width="218.57143"
           height="235"
           x="-63.57143"
           y="298.94824" /></flowRegion><flowPara
         id="flowPara4570" /></flowRoot>    <flowRoot
       xml:space="preserve"
       id="flowRoot4578"
       style="fill:black;stroke:none;stroke-opacity:1;stroke-width:1px;stroke-linejoin:miter;stroke-linecap:butt;fill-opacity:1;font-family:Bungee;font-style:normal;font-weight:normal;font-size:24px;line-height:125%;letter-spacing:0px;word-spacing:0px;-inkscape-font-specification:Bungee;font-stretch:normal;font-variant:normal"><flowRegion
         id="flowRegion4580"><rect
           id="rect4582"
           width="125"
           height="135.71428"
           x="55"
           y="344.66254" /></flowRegion><flowPara
         id="flowPara4584" /></flowRoot>    <g
       id="banner-skyscraper"
       transform="translate(-4.1694048,1.4432554)"
       inkscape:label="banner-skyscraper"
       inkscape:export-xdpi="154.58743"
       inkscape:export-ydpi="154.58743">
      <rect
         style="clip-rule:evenodd;fill:#f7f7f7;fill-opacity:1;fill-rule:evenodd;stroke:none;stroke-width:0.25882909;image-rendering:optimizeQuality;shape-rendering:geometricPrecision;text-rendering:geometricPrecision"
         id="rect5024-7"
         width="178.27115"
         height="39.391243"
         x="64.846138"
         y="-205.66522"
         transform="rotate(90)" />
      <path
         id="path4161-3-3-0"
         style="font-weight:normal;font-size:40.35129929px;font-family:CastleT;clip-rule:evenodd;fill:#0093dd;fill-opacity:1;fill-rule:evenodd;stroke-width:3.85950589;image-rendering:optimizeQuality;shape-rendering:geometricPrecision;text-rendering:geometricPrecision"
         d="m 205.65818,147.9287 c -0.62061,10.52613 -11.8767,12.01196 -17.70942,12.97579 -10.19433,1.68457 -21.66753,3.04046 -21.66753,13.85278 0,15.40163 0.022,55.57051 0.022,68.36 h 39.39123 c 0,-15.62641 -0.0363,-78.36208 -0.0363,-95.18857 z"
         inkscape:connector-curvature="0"
         sodipodi:nodetypes="csscccc" />
      <path
         inkscape:connector-curvature="0"
         id="rect5024-5-9"
         d="m 205.64785,45.947328 h -39.37384 v 40.205519 c 1.49939,1.042286 1.3061,1.139356 2.99442,-0.117521 1.73875,1.180062 1.39867,1.313878 3.1636,0 1.73819,1.18022 1.39876,1.313792 3.1636,0 1.73797,1.180073 1.39805,1.313241 3.16295,0 1.73871,1.180064 1.39866,1.313876 3.16359,0 1.73818,1.180222 1.39879,1.313792 3.1636,0 1.73781,1.179967 1.39871,1.313399 3.16294,0 1.73872,1.180059 1.39868,1.313881 3.1636,0 1.73819,1.18022 1.39878,1.313795 3.1636,0 1.73796,1.180071 1.39806,1.313243 3.16295,0 1.73872,1.180059 1.39866,1.313881 3.1636,0 1.73817,1.18022 1.3981,1.313792 3.16294,0 l 1.46403,0.99407 0.11841,0.08041 z"
         style="clip-rule:evenodd;fill:#0093dd;fill-opacity:1;fill-rule:evenodd;stroke:none;stroke-width:0.24708542;image-rendering:optimizeQuality;shape-rendering:geometricPrecision;text-rendering:geometricPrecision" />
      <text
         id="text4536-3"
         y="183.16814"
         x="185.95073"
         style="font-style:normal;font-variant:normal;font-weight:normal;font-stretch:normal;font-size:4.82573462px;line-height:125%;font-family:'Libre Baskerville';-inkscape-font-specification:'Libre Baskerville';text-align:center;letter-spacing:0px;word-spacing:0px;text-anchor:middle;fill:#f7f7f7;fill-opacity:1;stroke:none;stroke-width:0.22620629px;stroke-linecap:butt;stroke-linejoin:miter;stroke-opacity:1"
         xml:space="preserve"><tspan
           id="tspan4540-6"
           style="font-style:normal;font-variant:normal;font-weight:600;font-stretch:normal;font-size:5.42895126px;line-height:150%;font-family:Raleway;-inkscape-font-specification:'Raleway Semi-Bold';text-align:center;letter-spacing:0.02910417px;text-anchor:middle;fill:#f7f7f7;fill-opacity:1;stroke-width:0.22620629px"
           y="183.16814"
           x="185.96529"
           sodipodi:role="line">Trusted by</tspan><tspan
           id="tspan6438"
           style="font-style:normal;font-variant:normal;font-weight:800;font-stretch:normal;font-size:5.42895126px;line-height:150%;font-family:Raleway;-inkscape-font-specification:'Raleway Ultra-Bold';text-align:center;letter-spacing:0.02910417px;text-anchor:middle;fill:#f7f7f7;fill-opacity:1;stroke-width:0.22620629px"
           y="191.31157"
           x="185.96529"
           sodipodi:role="line">activists,</tspan><tspan
           id="tspan4612-6"
           style="font-style:normal;font-variant:normal;font-weight:800;font-stretch:normal;font-size:5.42895126px;line-height:150%;font-family:Raleway;-inkscape-font-specification:'Raleway Ultra-Bold';text-align:center;letter-spacing:0.02910417px;text-anchor:middle;fill:#f7f7f7;fill-opacity:1;stroke-width:0.22620629px"
           y="199.45499"
           x="185.96529"
           sodipodi:role="line">journalists</tspan><tspan
           id="tspan6442"
           style="font-style:normal;font-variant:normal;font-weight:600;font-stretch:normal;font-size:5.42895126px;line-height:150%;font-family:Raleway;-inkscape-font-specification:'Raleway Semi-Bold';text-align:center;letter-spacing:0.02910417px;text-anchor:middle;fill:#f7f7f7;fill-opacity:1;stroke-width:0.22620629px"
           y="207.59842"
           x="185.96529"
           sodipodi:role="line">and <tspan
   id="tspan4674-6"
   style="font-style:normal;font-variant:normal;font-weight:800;font-stretch:normal;line-height:150%;font-family:Raleway;-inkscape-font-specification:'Raleway Ultra-Bold';text-align:center;letter-spacing:0.02910417px;text-anchor:middle;fill:#f7f7f7;fill-opacity:1;stroke-width:0.22620629px">lawyers</tspan></tspan><tspan
           id="tspan4631-1"
           style="font-style:normal;font-variant:normal;font-weight:600;font-stretch:normal;font-size:5.42895126px;line-height:150%;font-family:Raleway;-inkscape-font-specification:'Raleway Semi-Bold';text-align:center;letter-spacing:0.02910417px;text-anchor:middle;fill:#f7f7f7;fill-opacity:1;stroke-width:0.22620629px"
           y="215.74185"
           x="185.96529"
           sodipodi:role="line">around</tspan><tspan
           id="tspan6445"
           style="font-style:normal;font-variant:normal;font-weight:600;font-stretch:normal;font-size:5.42895126px;line-height:150%;font-family:Raleway;-inkscape-font-specification:'Raleway Semi-Bold';text-align:center;letter-spacing:0.02910417px;text-anchor:middle;fill:#f7f7f7;fill-opacity:1;stroke-width:0.22620629px"
           y="223.88527"
           x="185.96529"
           sodipodi:role="line">the world.</tspan></text>
      <path
         id="path4161-3-0-0-7"
         style="font-weight:normal;font-size:40.35129929px;font-family:CastleT;clip-rule:evenodd;fill:#0093dd;fill-opacity:1;fill-rule:evenodd;stroke-width:0.71938753;image-rendering:optimizeQuality;shape-rendering:geometricPrecision;text-rendering:geometricPrecision"
         d="m 171.44805,113.35539 2.04213,7.5e-4 9.1e-4,-6.14709 c 9.1e-4,-6.8911 5.59158,-12.478411 12.4826,-12.476772 6.89123,0.0011 12.47819,5.591562 12.47655,12.482662 l -9.1e-4,6.08638 c -0.0298,0.0206 -0.0588,0.0408 -0.0879,0.0605 h 1.8e-4 l -0.0185,0.0138 -9.1e-4,9.1e-4 -9.1e-4,9.1e-4 -9.1e-4,9.1e-4 -0.009,0.005 -0.0102,0.008 -9.1e-4,9.1e-4 -0.0122,0.008 -5.6e-4,4.4e-4 -0.005,0.004 -0.004,0.004 -0.005,0.005 -9.1e-4,7e-4 -0.008,0.005 -8e-5,-2e-5 -0.008,0.005 -0.009,0.005 -0.005,0.005 -0.005,0.004 -0.004,0.004 -0.0102,0.008 -0.0102,0.008 -5.8e-4,3.4e-4 -0.0138,0.009 -0.004,0.004 -0.0174,0.0102 -9.1e-4,7e-4 -0.008,0.005 -1.8e-4,1.7e-4 -0.004,9.1e-4 -0.0221,0.0153 -0.004,0.004 -0.005,0.005 -9.1e-4,9.1e-4 -9.1e-4,9.1e-4 -0.0122,0.008 -9.1e-4,6.6e-4 -3.8e-4,2.1e-4 -7.2e-4,4.2e-4 -0.0138,0.008 -0.004,9.1e-4 -0.005,0.004 -0.005,0.004 -0.004,0.004 -0.008,0.005 -0.005,0.005 -5.6e-4,2e-4 -0.008,0.005 -7.1e-4,5e-4 -0.005,0.005 -9.1e-4,9.1e-4 -0.005,0.005 -0.004,0.004 -0.004,0.004 -0.005,0.004 -0.004,9.1e-4 -0.0378,0.0247 -0.008,0.005 -9.1e-4,9.1e-4 -0.0201,0.0138 -9.1e-4,7.1e-4 -0.0227,0.0138 -5.6e-4,3.5e-4 -9.1e-4,7.2e-4 -0.005,0.005 -3.7e-4,2.1e-4 -0.005,0.005 -7.1e-4,4.3e-4 -0.005,0.005 -0.005,0.005 -7.1e-4,4.8e-4 -0.004,0.004 -0.009,0.005 -0.005,0.005 -0.008,0.005 -0.0225,0.0138 -0.0225,0.0138 -0.0225,0.0138 -0.0225,0.0138 -0.0452,0.0266 -0.0231,0.0138 -0.0227,0.0138 -0.009,0.005 -0.0599,0.0339 -0.0238,0.0138 -0.0238,0.0138 -0.0238,0.0138 -0.0309,0.0183 -0.0402,0.0227 -0.0238,0.0138 -0.093,0.0517 -0.005,0.004 -0.0244,0.0138 -0.0244,0.0138 -0.005,0.004 -0.0326,0.0175 -0.073,0.0405 -0.0348,0.0186 c -0.0355,0.019 -0.0708,0.0378 -0.10657,0.0572 l -0.009,0.005 -0.0166,0.008 -0.0521,0.0273 -0.0265,0.0138 -0.005,0.004 -0.0479,0.0252 -1.8e-4,1.4e-4 -0.0265,0.0138 -0.008,0.005 -0.0457,0.0238 -0.027,0.0138 -0.0248,0.0138 c -0.0334,0.0171 -0.0674,0.0348 -0.10184,0.052 l -0.0278,0.0138 c -0.0401,0.0205 -0.0808,0.041 -0.12188,0.0608 l -4e-4,1.5e-4 c -0.0396,0.0199 -0.0787,0.0391 -0.11883,0.0588 l -0.0396,0.0192 c -0.0437,0.021 -0.0872,0.0425 -0.13167,0.0635 l -2.1e-4,2e-5 c -2.47631,1.18344 -6.45109,2.44214 -13.9963,2.98198 -5.40522,0.38704 -8.68251,2.76528 -10.82042,5.63589 l 0.004,-9.79622 z m 7.79047,9.1e-4 13.46254,0.004 9.1e-4,-6.14708 c 7e-4,-3.71716 -3.01266,-6.73212 -6.72967,-6.733 -3.71692,-7e-4 -6.73202,3.01266 -6.73288,6.72983 z m 17.43888,0.97362 c -0.0401,0.0205 -0.0808,0.0404 -0.12189,0.0608 m -4.92863,-16.638779 c -1.60013,-0.956663 -3.47093,-1.507275 -5.47017,-1.50775 -5.48016,-0.001 -9.99831,4.126549 -10.61405,9.441909 1.60772,-5.02586 6.3179,-8.665623 11.87647,-8.664311 1.47654,3.5e-4 2.89317,0.258234 4.20775,0.730152 z m 8.86427,17.962719 -0.005,17.61443 -24.848,-0.005 c 2.73949,-1.52228 4.78084,-1.36671 8.16189,-1.25899 4.60425,0.14678 9.69229,-1.78097 12.19499,-4.33434 2.50299,-2.55365 -0.22628,-0.60441 -3.05914,0.1135 -2.83326,0.7175 -8.31524,0.79268 -11.97936,-0.17137 11.5411,0.1601 16.03362,-3.57222 18.58514,-6.91513 2.55138,-3.34282 -1.10304,-0.58072 -3.47031,0.57132 -2.36715,1.15307 -6.49539,1.97633 -11.03451,1.37421 6.87103,-0.0122 12.09983,-3.44503 15.45346,-6.98778 z"
         inkscape:connector-curvature="0"
         sodipodi:nodetypes="ccsssccccccccccccccccccccccccccccccccccccccccccccccccccccccccccccccccccccccccccccccccccccccccccccccccccccccccccccccccccccccccccccccccsssccccscscccccccccccc" />
      <g
         id="g6319"
         transform="matrix(0,-1.3075888,1.1220953,0,109.03573,309.26076)">
        <g
           id="g7302">
          <text
             transform="matrix(0,1.0610964,-0.94242144,0,0,0)"
             id="text4513-9"
             y="-206.2484"
             x="50.535992"
             style="font-style:normal;font-variant:normal;font-weight:normal;font-stretch:normal;font-size:5.76064062px;line-height:125%;font-family:Bungee;-inkscape-font-specification:Bungee;letter-spacing:0px;word-spacing:0px;fill:#f7f7f7;fill-opacity:1;stroke:none;stroke-width:0.2400267px;stroke-linecap:butt;stroke-linejoin:miter;stroke-opacity:1"
             xml:space="preserve"><tspan
               id="tspan4539-2"
               style="fill:#f7f7f7;fill-opacity:1;stroke-width:0.2400267px"
               y="-206.2484"
               x="50.535992"
               sodipodi:role="line">support</tspan></text>
          <text
             transform="matrix(0,1.1472696,-0.87163471,0,0,0)"
             id="text4550-0"
             y="-217.25165"
             x="46.650623"
             style="font-style:normal;font-variant:normal;font-weight:normal;font-stretch:normal;font-size:6.22847128px;line-height:125%;font-family:Bungee;-inkscape-font-specification:Bungee;letter-spacing:0px;word-spacing:0px;fill:#f7f7f7;fill-opacity:1;stroke:none;stroke-width:0.25951961px;stroke-linecap:butt;stroke-linejoin:miter;stroke-opacity:1"
             xml:space="preserve"><tspan
               id="tspan4552-2"
               style="fill:#f7f7f7;fill-opacity:1;stroke-width:0.25951961px"
               y="-217.25165"
               x="46.650623"
               sodipodi:role="line">online</tspan></text>
          <text
             transform="matrix(0,0.8416577,-1.1881315,0,0,0)"
             id="text4558-3"
             y="-152.7243"
             x="63.572239"
             style="font-style:normal;font-variant:normal;font-weight:normal;font-stretch:normal;font-size:7.39112139px;line-height:125%;font-family:Bungee;-inkscape-font-specification:Bungee;letter-spacing:0px;word-spacing:0px;fill:#f7f7f7;fill-opacity:1;stroke:none;stroke-width:0.30796337px;stroke-linecap:butt;stroke-linejoin:miter;stroke-opacity:1"
             xml:space="preserve"><tspan
               style="fill:#f7f7f7;fill-opacity:1;stroke-width:0.30796337px"
               y="-152.7243"
               x="63.572239"
               id="tspan4556-7"
               sodipodi:role="line">privacy</tspan></text>
          <text
             transform="matrix(0,1.2397549,-0.80661108,0,0,0)"
             id="text4562-5"
             y="-216.97253"
             x="42.877209"
             style="font-style:normal;font-variant:normal;font-weight:normal;font-stretch:normal;font-size:9.09567642px;line-height:125%;font-family:Bungee;-inkscape-font-specification:Bungee;letter-spacing:0px;word-spacing:0px;fill:#f7f7f7;fill-opacity:1;stroke:none;stroke-width:0.37898648px;stroke-linecap:butt;stroke-linejoin:miter;stroke-opacity:1"
             xml:space="preserve"><tspan
               style="fill:#f7f7f7;fill-opacity:1;stroke-width:0.37898648px"
               y="-216.97253"
               x="42.877209"
               id="tspan4560-9"
               sodipodi:role="line">now!</tspan></text>
        </g>
      </g>
      <path
         id="path4161-6-7-4-8-2-0"
         style="font-weight:normal;font-size:40.35129929px;font-family:CastleT;clip-rule:evenodd;fill:#0093dd;fill-opacity:1;fill-rule:evenodd;stroke-width:0.38332757;image-rendering:optimizeQuality;shape-rendering:geometricPrecision;text-rendering:geometricPrecision"
         d="m 198.76626,138.37452 v 1.27639 c -0.94659,-0.64449 -1.88312,-0.96674 -2.80957,-0.96674 -1.00701,0 -1.82019,0.34238 -2.43949,1.02716 -0.38772,0.42798 -0.65204,0.89876 -0.79304,1.41235 -0.1762,0.6193 -0.26434,1.30407 -0.26434,2.05431 0,1.54577 0.34742,2.69627 1.04228,3.45153 0.58407,0.63947 1.35191,0.9592 2.30355,0.9592 0.55386,0 1.08504,-0.14352 1.5936,-0.43051 v -4.02554 c 0,-0.1863 -0.0201,-0.35246 -0.0606,-0.49848 h 1.79753 c -0.0404,0.15609 -0.0604,0.32225 -0.0604,0.49848 v 3.96512 c 0.005,0.23161 0.0378,0.43806 0.0982,0.61931 -0.92646,0.3021 -1.60366,0.49595 -2.03164,0.58154 -0.42297,0.0856 -0.93149,0.1284 -1.52563,0.1284 -1.07246,0 -1.94857,-0.19133 -2.6283,-0.57398 -0.81569,-0.4582 -1.42746,-1.13039 -1.8353,-2.01657 -0.3575,-0.7754 -0.53624,-1.66911 -0.53624,-2.68117 0,-1.79752 0.55891,-3.18218 1.67669,-4.15395 0.90127,-0.79051 2.0971,-1.18574 3.5875,-1.18574 0.90629,0 1.868,0.18629 2.88507,0.55889 z m -13.87415,5.46808 v 3.93492 c 0,0.14602 0.0252,0.31218 0.0757,0.49848 h -1.86549 c 0.0454,-0.15609 0.0678,-0.32224 0.0678,-0.49848 v -9.30484 c 0,-0.18628 -0.0225,-0.35497 -0.0678,-0.506 h 3.30047 c 0.80562,0 1.48787,0.1611 2.04676,0.48335 0.85596,0.50352 1.28394,1.2915 1.28394,2.36397 0,1.18827 -0.52113,2.04424 -1.56338,2.5679 -0.60925,0.30713 -1.33682,0.4607 -2.18271,0.4607 z m 0,-0.79303 h 0.92142 c 0.50351,0 0.90883,-0.0906 1.21597,-0.27187 0.29203,-0.17624 0.52365,-0.43806 0.69484,-0.78548 0.17119,-0.34742 0.25679,-0.73261 0.25679,-1.15556 0,-0.65456 -0.18127,-1.16814 -0.54379,-1.54074 -0.35749,-0.37763 -0.85092,-0.56644 -1.48032,-0.56644 h -1.06491 z m -3.97765,-4.67507 v 1.2764 c -0.9466,-0.64449 -1.88313,-0.96673 -2.80959,-0.96673 -1.007,0 -1.82016,0.34238 -2.43948,1.02716 -0.38771,0.42797 -0.65206,0.89876 -0.79304,1.41233 -0.17623,0.61932 -0.26435,1.30409 -0.26435,2.05431 0,1.54577 0.34743,2.69628 1.04227,3.45155 0.58408,0.63946 1.35192,0.95919 2.30355,0.95919 0.55386,0 1.08505,-0.14351 1.59361,-0.43051 v -4.02555 c 0,-0.18628 -0.21188,-0.49846 -0.0604,-0.49846 h 1.79753 c -0.0404,0.15608 -0.0604,0.32225 -0.0604,0.49846 v 3.96514 c 0.005,0.23161 0.0378,0.43804 0.0982,0.61931 -0.92647,0.3021 -1.60368,0.49595 -2.03167,0.58154 -0.42294,0.0856 -0.93149,0.1284 -1.52563,0.1284 -1.07247,0 -1.94857,-0.19133 -2.62831,-0.57399 -0.81567,-0.4582 -1.42744,-1.13038 -1.83528,-2.01656 -0.35748,-0.7754 -0.53624,-1.66911 -0.53624,-2.68117 0,-1.79752 0.5589,-3.18218 1.67669,-4.15395 0.90126,-0.79051 2.09711,-1.18575 3.5875,-1.18575 0.9063,0 1.868,0.18629 2.88508,0.55888 z"
         inkscape:connector-curvature="0"
         sodipodi:nodetypes="ccsccscscsccscccsccscscccccsscscscsccccsscsccccccscscsccscccsccscscscc" />
    </g>
    <g
       id="banner-rectangle"
       transform="matrix(1,0,0,1.0020885,-2.1381566,-1.4321032)"
       inkscape:label="banner-rectangle"
       inkscape:export-xdpi="240.08"
       inkscape:export-ydpi="240.08">
      <rect
         y="45.848969"
         x="8.3223944"
         height="63.342884"
         width="126.95303"
         id="rect6630"
         style="fill:#f7f7f7;fill-opacity:1;stroke:none;stroke-width:0.23547353" />
      <path
         id="path4161-3-3-0-7"
         style="font-weight:normal;font-size:40.35129929px;font-family:CastleT;clip-rule:evenodd;fill:#0093dd;fill-opacity:1;fill-rule:evenodd;stroke-width:3.55511189;image-rendering:optimizeQuality;shape-rendering:geometricPrecision;text-rendering:geometricPrecision"
         d="M 135.23646,71.239742 C 134.57501,89.651535 83.598873,90.507167 53.139045,91.617016 5.4601474,93.354269 8.4560292,100.61663 8.3223944,109.19185 H 135.23666 c 0.005,-12.946021 -2e-4,-26.23219 -2e-4,-37.952108 z"
         inkscape:connector-curvature="0"
         sodipodi:nodetypes="csccc" />
      <path
         sodipodi:nodetypes="ccccccccccccccccccccccccccccccccccccccccccccccccc"
         inkscape:connector-curvature="0"
         id="rect5024-5-9-3"
         d="m 8.3223958,45.848972 -1.28e-4,12.04612 c 1.384182,1.04229 1.206001,1.13958 2.7645952,-0.1173 1.605149,1.18006 1.29108,1.31388 2.920399,0 1.604631,1.18022 1.291172,1.3138 2.9204,0 1.604437,1.18008 1.290583,1.31325 2.919873,0 1.605116,1.18007 1.291604,1.31388 2.920923,0 1.604619,1.18023 1.291179,1.3138 2.920399,0 1.604273,1.17997 1.291204,1.3134 2.919873,0 1.605127,1.18006 1.291089,1.31388 2.9204,0 1.60463,1.18022 1.291179,1.3138 2.920396,0 1.604418,1.18008 1.290597,1.31325 2.919876,0 1.417545,1.16336 2.052273,0.69918 2.920923,0 1.405261,1.18035 2.031499,0.71571 2.919873,0 l 0.0068,0.005 c 1.793202,1.36702 1.153997,1.1714 2.757776,-0.123 1.604437,1.18008 1.290586,1.31325 2.919873,0 1.605119,1.18007 1.291604,1.31388 2.920923,0 1.604623,1.18023 1.291183,1.31381 2.9204,0 1.604276,1.17997 1.291204,1.3134 2.919873,0 1.60513,1.18006 1.291091,1.31388 2.920399,0 1.60463,1.18023 1.291183,1.31381 2.9204,0 1.604415,1.18008 1.29112,1.31325 2.920396,0 1.605128,1.18006 1.29107,1.31388 2.9204,0 1.414761,1.1643 2.049258,0.70083 2.919875,0 1.80048,1.37126 1.15678,1.18076 2.76512,-0.11731 1.60463,1.18022 1.291168,1.31381 2.920396,0 1.604437,1.18008 1.290586,1.31325 2.919876,0 1.605116,1.18007 1.291077,1.31388 2.920397,0 1.604619,1.18023 1.291189,1.31381 2.920399,0 1.60428,1.17997 1.29121,1.3134 2.919884,0 1.60512,1.18006 1.29161,1.31388 2.92092,0 1.60463,1.18022 1.29118,1.31381 2.9204,0 1.60442,1.18008 1.29059,1.31325 2.91987,0 1.21609,1.10526 1.931065,0.79808 2.919875,-8e-5 1.35661,1.12354 1.53566,1.11793 2.92043,2.7e-4 1.55378,1.29686 1.52687,1.12494 2.9204,0 1.60444,1.18008 1.29111,1.31325 2.9204,0 1.60512,1.18007 1.29108,1.31388 2.9204,0 1.60462,1.18023 1.29118,1.31381 2.9204,0 1.60427,1.17997 1.2912,1.3134 2.91987,0 1.60513,1.18006 1.29109,1.31388 2.9204,0 1.60463,1.18022 1.2917,1.31381 2.92092,0 1.60442,1.18008 1.2906,1.31325 2.91988,0 1.60512,1.18006 1.29107,1.31388 2.9204,0 1.60463,1.18022 1.29063,1.31381 2.91987,0 1.20739,1.21667 1.53225,1.0003 1.84911,0.95743 l -0.001,-12.65113 c -37.403985,-7e-5 -85.769275,1.1e-4 -126.9530342,0 z"
         style="clip-rule:evenodd;fill:#0093dd;fill-opacity:1;fill-rule:evenodd;stroke:none;stroke-width:0.23740317;image-rendering:optimizeQuality;shape-rendering:geometricPrecision;text-rendering:geometricPrecision" />
      <g
         id="g7292"
         transform="translate(0.10075098)">
        <g
           transform="translate(-0.1602156)"
           id="g7284">
          <path
             id="path4161-6-7-4-5-8"
             style="font-weight:normal;font-size:40.35129929px;font-family:CastleT;clip-rule:evenodd;fill:#0093dd;fill-opacity:1;fill-rule:evenodd;stroke-width:0.45048526;image-rendering:optimizeQuality;shape-rendering:geometricPrecision;text-rendering:geometricPrecision"
             d="m 89.258137,75.188088 v 1.50002 c -1.11244,-0.75741 -2.21303,-1.13611 -3.30178,-1.13611 -1.18344,0 -2.13908,0.40237 -2.8669,1.20711 -0.45562,0.50296 -0.76626,1.05623 -0.93195,1.65978 -0.2071,0.72781 -0.31066,1.53255 -0.31066,2.41422 0,1.81659 0.40828,3.16866 1.22487,4.056236 0.68638,0.7515 1.58876,1.12723 2.70712,1.12723 0.65089,0 1.27514,-0.16863 1.87279,-0.50591 v -4.730816 c 0,-0.21893 -0.0237,-0.4142 -0.071,-0.5858 h 2.11243 c -0.0474,0.18343 -0.071,0.37871 -0.071,0.5858 v 4.659796 c 0.006,0.27221 0.0444,0.5148 0.11539,0.72782 -1.08878,0.35504 -1.88463,0.58284 -2.38759,0.68344 -0.49706,0.10059 -1.09468,0.15089 -1.79291,0.15089 -1.26036,0 -2.28996,-0.22485 -3.08878,-0.67456 -0.958583,-0.53847 -1.677533,-1.32842 -2.156833,-2.369836 -0.42012,-0.91126 -0.63018,-1.96156 -0.63018,-3.15092 0,-2.11244 0.65681,-3.73967 1.97043,-4.88169 1.059193,-0.92901 2.464523,-1.3935 4.216023,-1.3935 1.06508,0 2.19526,0.21894 3.39053,0.6568 z m -16.304853,6.42609 v 4.624296 c 0,0.1716 0.0296,0.36687 0.0887,0.58581 h -2.19232 c 0.0533,-0.18345 0.0798,-0.3787 0.0798,-0.58581 V 75.303478 c 0,-0.21894 -0.0266,-0.41717 -0.0798,-0.59467 h 3.87873 c 0.94675,0 1.74853,0.18934 2.40535,0.56804 1.00592,0.59172 1.50888,1.51777 1.50888,2.77813 0,1.39646 -0.61243,2.40238 -1.8373,3.01778 -0.71598,0.36095 -1.57101,0.54142 -2.5651,0.54142 z m 0,-0.93196 h 1.08285 c 0.59172,0 1.06805,-0.10651 1.429,-0.31953 0.3432,-0.2071 0.61539,-0.5148 0.81658,-0.92308 0.20118,-0.40829 0.30177,-0.86095 0.30177,-1.35801 0,-0.76923 -0.21301,-1.37279 -0.63905,-1.81066 -0.42012,-0.44379 -1.00001,-0.66568 -1.73966,-0.66568 h -1.25149 z m -6.434959,6.142066 v -1.29588 c -0.33729,0.46154 -0.662736,0.79291 -0.976341,0.9941 -0.497051,0.31361 -1.121312,0.47041 -1.8728,0.47041 -1.011843,0 -1.789954,-0.28698 -2.334337,-0.86096 -0.449715,-0.47338 -0.674579,-1.1568 -0.674579,-2.050286 v -6.14208 c 0,-0.20118 -0.02368,-0.39349 -0.07105,-0.57693 h 1.997069 c -0.04736,0.16569 -0.07105,0.358 -0.07105,0.57693 v 5.93792 c 0,0.50888 0.121301,0.914206 0.363903,1.215986 0.319529,0.38461 0.798824,0.57694 1.437886,0.57694 0.644977,0 1.165685,-0.18345 1.562145,-0.5503 0.402364,-0.37279 0.603554,-0.855046 0.603554,-1.446766 v -5.73378 c 0,-0.2071 -0.0237,-0.39941 -0.071,-0.57693 h 1.997049 c -0.0474,0.15385 -0.071,0.34617 -0.071,0.57693 v 8.298886 c 0,0.18935 0.0237,0.38462 0.071,0.58581 z M 50.435347,77.362658 h 1.890541 v 1.3225 c 0.284033,-0.44379 0.571013,-0.76923 0.860954,-0.97633 0.544383,-0.37871 1.233742,-0.56806 2.068073,-0.56806 1.076923,0 1.893496,0.3284 2.449711,0.98522 0.355039,0.42012 0.532554,1.00592 0.532554,1.75741 v 6.355076 c 0,0.19528 0.02368,0.39053 0.07105,0.58581 h -1.997059 c 0.04736,-0.14794 0.07105,-0.3432 0.07105,-0.58581 v -6.079926 c 0,-0.53847 -0.156806,-0.95563 -0.470419,-1.25149 -0.313616,-0.29587 -0.760362,-0.4438 -1.340242,-0.4438 -0.721905,0 -1.266287,0.20119 -1.633148,0.60357 -0.384628,0.42603 -0.576932,0.97338 -0.576932,1.64202 v 5.529626 c 0,0.20711 0.02368,0.40236 0.07105,0.58581 h -1.997051 c 0.04736,-0.1716 0.07105,-0.36688 0.07105,-0.58581 v -8.298886 c 0,-0.20118 -0.02368,-0.39349 -0.07105,-0.57693 z m -2.609495,-2.17457 v 1.50002 c -1.11243,-0.75741 -2.213039,-1.13611 -3.301802,-1.13611 -1.183436,0 -2.139068,0.40237 -2.866889,1.20711 -0.455622,0.50296 -0.766278,1.05623 -0.931959,1.65978 -0.207104,0.72781 -0.310656,1.53255 -0.310656,2.41422 0,1.81659 0.408292,3.16866 1.224866,4.056236 0.686399,0.7515 1.588775,1.12723 2.707124,1.12723 0.650891,0 1.275162,-0.16863 1.87279,-0.50591 v -4.730816 c 0,-0.21893 -0.02368,-0.4142 -0.07105,-0.5858 h 2.112444 c -0.04736,0.18343 -0.07105,0.37871 -0.07105,0.5858 v 4.659796 c 0.006,0.27221 0.04437,0.5148 0.115385,0.72782 -1.088766,0.35504 -1.884633,0.58284 -2.387595,0.68344 -0.497044,0.10059 -1.094679,0.15089 -1.79292,0.15089 -1.260364,0 -2.289949,-0.22485 -3.088775,-0.67456 -0.95859,-0.53847 -1.677529,-1.32842 -2.156824,-2.369836 -0.420124,-0.91126 -0.630186,-1.96156 -0.630186,-3.15092 0,-2.11244 0.656818,-3.73967 1.970436,-4.88169 1.059176,-0.92901 2.464514,-1.3935 4.216004,-1.3935 1.065102,0 2.195288,0.21894 3.390564,0.6568 z"
             inkscape:connector-curvature="0"
             sodipodi:nodetypes="ccsccscscsccscccsccscsccsccsscscscsccscsscscccccscssccsscscssccssccccccscssccsssscssccsscccsccscscsccscccsccscsc" />
          <path
             id="path4161-3-0-0-4-4"
             style="font-weight:normal;font-size:40.35129929px;font-family:CastleT;clip-rule:evenodd;fill:#0093dd;fill-opacity:1;fill-rule:evenodd;stroke-width:0.47097108;image-rendering:optimizeQuality;shape-rendering:geometricPrecision;text-rendering:geometricPrecision"
             d="m 16.340263,73.925048 1.336947,4.8e-4 9.39e-4,-4.02441 c 10e-4,-4.51146 3.66071,-8.16938 8.172142,-8.16832 4.511576,10e-4 8.169263,3.66071 8.168199,8.1722 l -7.41e-4,3.98465 c -0.01954,0.0135 -0.03852,0.0267 -0.05746,0.0396 h 1.25e-4 l -0.01213,0.009 -0.0015,7.9e-4 -0.0015,7.7e-4 -0.0015,7.7e-4 -0.0064,0.004 -0.0071,0.005 -0.0015,7.7e-4 -0.0082,0.005 -3.7e-4,2.9e-4 -0.0032,0.002 -0.0019,0.002 -0.0036,0.003 -9.53e-4,4.5e-4 -0.005,0.003 -4.9e-5,-1e-5 -0.005,0.003 -0.0064,0.004 -0.0032,0.003 -0.0028,0.002 -0.0023,0.002 -0.0071,0.005 -0.0071,0.005 -3.7e-4,2.2e-4 -0.0089,0.006 -0.0019,0.002 -0.01144,0.007 -9.53e-4,4.5e-4 -0.0046,0.003 -1.21e-4,1.1e-4 -0.0019,7.9e-4 -0.01449,0.01 -0.0023,0.002 -0.0032,0.003 -0.0015,8e-4 -9.52e-4,7.9e-4 -0.0079,0.005 -9.52e-4,4.3e-4 -2.51e-4,1.3e-4 -4.77e-4,2.7e-4 -0.0086,0.005 -0.0019,7.9e-4 -0.0028,0.002 -0.0028,0.002 -0.0019,0.002 -0.0046,0.003 -0.0044,0.003 -3.71e-4,1.4e-4 -0.0046,0.003 -4.76e-4,3.1e-4 -0.0043,0.003 -0.0015,7.7e-4 -0.0032,0.003 -0.0023,0.002 -0.0023,0.002 -0.0028,0.002 -0.0019,8e-4 -0.02478,0.0161 -0.0055,0.003 -0.0015,7.6e-4 -0.0132,0.008 -9.52e-4,4.8e-4 -0.01486,0.009 -3.71e-4,2.4e-4 -9.52e-4,4.5e-4 -0.0043,0.003 -2.43e-4,1.4e-4 -0.0044,0.003 -4.76e-4,2.9e-4 -0.0038,0.003 -0.0038,0.003 -4.76e-4,3.1e-4 -0.0019,0.002 -0.0064,0.004 -0.0032,0.003 -0.005,0.003 -0.0147,0.008 -0.0147,0.008 -0.0147,0.008 -0.0147,0.008 -0.02956,0.0174 -0.01506,0.008 -0.01486,0.009 -0.0064,0.004 -0.03917,0.0222 -0.01559,0.009 -0.01559,0.009 -0.01559,0.009 -0.02031,0.012 -0.02629,0.0149 -0.01559,0.009 -0.06086,0.0339 -0.0028,0.002 -0.01596,0.009 -0.01595,0.009 -0.0038,0.002 -0.02141,0.0115 -0.04785,0.0265 -0.02269,0.0121 c -0.0232,0.0124 -0.04637,0.0248 -0.06983,0.0374 l -0.006,0.003 -0.01089,0.005 -0.03411,0.0178 -0.01724,0.009 -0.0028,0.002 -0.03139,0.0165 -1.21e-4,1e-4 -0.01725,0.009 -0.005,0.003 -0.02995,0.0157 -0.0177,0.009 -0.01634,0.008 c -0.02178,0.0112 -0.04408,0.0227 -0.06672,0.0339 l -0.01816,0.009 c -0.02632,0.0134 -0.05291,0.0269 -0.07983,0.0398 l -2.53e-4,9e-5 c -0.02586,0.013 -0.05155,0.0256 -0.07778,0.0386 l -0.02586,0.0126 c -0.02859,0.0139 -0.05713,0.0278 -0.08617,0.0416 l -1.25e-4,1e-5 c -1.621129,0.77487 -4.223351,1.59892 -9.163074,1.95234 -3.5387,0.25339 -5.684293,1.81039 -7.083944,3.68972 l 0.0016,-6.41342 z m 5.100289,8.5e-4 8.813708,0.002 9.52e-4,-4.0244 c 4.77e-4,-2.43356 -1.972332,-4.4074 -4.405793,-4.40797 -2.433413,-4.5e-4 -4.407342,1.97233 -4.40791,4.40589 z m 11.416942,0.63741 c -0.02632,0.0134 -0.05291,0.0264 -0.07983,0.0398 m -3.226703,-10.89309 c -1.04757,-0.62631 -2.272344,-0.98679 -3.581219,-0.9871 -3.587766,-6.3e-4 -6.545721,2.70159 -6.948845,6.18147 1.052549,-3.29034 4.136226,-5.67325 7.775327,-5.67239 0.966668,2.3e-4 1.894112,0.16906 2.754737,0.47802 z m 5.803295,11.7599 -0.0027,11.531876 -16.267572,-0.004 c 1.793504,-0.99663 3.129952,-0.89477 5.343452,-0.82425 3.014338,0.0961 6.345387,-1.16596 7.983866,-2.837606 1.638666,-1.67184 -0.148152,-0.3957 -2.002773,0.0743 -1.854889,0.46973 -5.443843,0.518956 -7.842682,-0.11219 7.555768,0.10481 10.496945,-2.33868 12.167383,-4.52722 1.670343,-2.1885 -0.722143,-0.38019 -2.271959,0.37402 -1.549729,0.75491 -4.252421,1.29388 -7.224107,0.89968 4.498342,-0.008 7.921556,-2.2554 10.117114,-4.57479 z"
             inkscape:connector-curvature="0"
             sodipodi:nodetypes="ccsssccccccccccccccccccccccccccccccccccccccccccccccccccccccccccccccccccccccccccccccccccccccccccccccccccccccccccccccccccccccccccccccccsssccccscscccccccccccc" />
        </g>
        <text
           xml:space="preserve"
           style="font-style:normal;font-variant:normal;font-weight:normal;font-stretch:normal;font-size:6.58728409px;line-height:125%;font-family:Bungee;-inkscape-font-specification:Bungee;letter-spacing:0px;word-spacing:0px;fill:#f7f7f7;fill-opacity:1;stroke:none;stroke-width:0.27447018px;stroke-linecap:butt;stroke-linejoin:miter;stroke-opacity:1"
           x="17.098032"
           y="50.515152"
           id="text4513-9-2"
           transform="scale(0.92793861,1.0776575)"><tspan
             sodipodi:role="line"
             x="17.098032"
             y="50.515152"
             style="fill:#f7f7f7;fill-opacity:1;stroke-width:0.27447018px"
             id="tspan4539-2-0">support online  <tspan
   style="letter-spacing:0.5291667px"
   id="tspan6835">privacy</tspan>  now!</tspan></text>
      </g>
      <text
         id="text4536-5-9"
         y="99.151093"
         x="131.25352"
         style="font-style:normal;font-variant:normal;font-weight:normal;font-stretch:normal;font-size:4.82573462px;line-height:125%;font-family:'Libre Baskerville';-inkscape-font-specification:'Libre Baskerville';text-align:end;letter-spacing:0px;word-spacing:0px;text-anchor:end;fill:#f7f7f7;fill-opacity:1;stroke:none;stroke-width:0.2262063px;stroke-linecap:butt;stroke-linejoin:miter;stroke-opacity:1"
         xml:space="preserve"><tspan
           id="tspan4612-7-4"
           style="font-style:normal;font-variant:normal;font-weight:600;font-stretch:normal;font-size:5.42895126px;font-family:Raleway;-inkscape-font-specification:'Raleway Semi-Bold';text-align:end;text-anchor:end;fill:#f7f7f7;fill-opacity:1;stroke-width:0.2262063px"
           y="99.151093"
           x="131.32138"
           sodipodi:role="line">Trusted by <tspan
   id="tspan4668-3-0"
   style="font-style:normal;font-variant:normal;font-weight:800;font-stretch:normal;font-family:Raleway;-inkscape-font-specification:'Raleway Ultra-Bold';letter-spacing:0.0678619px;fill:#f7f7f7;fill-opacity:1;stroke-width:0.2262063px">activists, journalists</tspan></tspan><tspan
           id="tspan4631-2-1"
           style="font-style:normal;font-variant:normal;font-weight:600;font-stretch:normal;font-size:5.42895126px;font-family:Raleway;-inkscape-font-specification:'Raleway Semi-Bold';text-align:end;text-anchor:end;fill:#f7f7f7;fill-opacity:1;stroke-width:0.2262063px"
           y="105.45354"
           x="131.25352"
           sodipodi:role="line">and <tspan
   id="tspan4674-5-7"
   style="font-style:normal;font-variant:normal;font-weight:800;font-stretch:normal;font-family:Raleway;-inkscape-font-specification:'Raleway Ultra-Bold';letter-spacing:0.0678619px;fill:#f7f7f7;fill-opacity:1;stroke-width:0.2262063px">lawyers </tspan>around the world.</tspan></text>
    </g>
    <g
       id="banner-half"
       transform="matrix(1.0020885,0,0,1,0.79361147,-4.0090429)"
       inkscape:label="banner-half"
       inkscape:export-xdpi="240.08"
       inkscape:export-ydpi="240.08">
      <rect
         transform="rotate(90)"
         y="-131.89685"
         x="121.80496"
         height="63.342884"
         width="126.95303"
         id="rect6630-6-3"
         style="fill:#f7f7f7;fill-opacity:1;stroke:none;stroke-width:0.23547353" />
      <path
         sodipodi:nodetypes="cccccccccccccccccccccccccccc"
         inkscape:connector-curvature="0"
         id="rect6630-6"
         d="m 68.553954,121.80496 v 22.8702 c 1.384183,1.04229 1.206095,1.13957 2.764689,-0.11731 1.60515,1.18006 1.290915,1.31388 2.920235,0 1.604632,1.18022 1.291008,1.3138 2.920236,0 1.604436,1.18008 1.290428,1.31325 2.919719,0 1.605116,1.18007 1.29195,1.31388 2.921267,0 1.604619,1.18023 1.291016,1.3138 2.920236,0 1.604274,1.17997 1.29105,1.3134 2.919719,0 1.605126,1.18006 1.291439,1.31388 2.920751,0 1.604629,1.18022 1.291019,1.3138 2.920235,0 1.604418,1.18008 1.290439,1.31325 2.91972,0 1.417545,1.16336 2.052616,0.69918 2.921269,0 1.40526,1.18035 2.03135,0.71571 2.91972,0 l 0.007,0.005 c 1.7932,1.36702 1.15368,1.17141 2.75746,-0.12299 1.60442,1.18008 1.29043,1.31325 2.91971,0 1.60512,1.18007 1.29195,1.31388 2.92127,0 1.60463,1.18023 1.29103,1.31381 2.92024,0 1.60428,1.17997 1.29105,1.3134 2.91972,0 1.60513,1.18006 1.29144,1.31388 2.92075,0 1.60463,1.18023 1.29101,1.31381 2.92023,0 1.60441,1.18008 1.29097,1.31325 2.92024,0 1.60513,1.18006 1.29142,1.31388 2.92075,0 1.33964,1.26661 1.68126,1.18115 2.32751,0.43718 V 121.80496 H 68.554472 Z"
         style="fill:#0093dd;fill-opacity:1;stroke:none;stroke-width:0.23547353" />
      <path
         id="path4161-3-3-0-7-7"
         style="font-weight:normal;font-size:40.35129929px;font-family:CastleT;clip-rule:evenodd;fill:#0093dd;fill-opacity:1;fill-rule:evenodd;stroke-width:3.11140203;image-rendering:optimizeQuality;shape-rendering:geometricPrecision;text-rendering:geometricPrecision"
         d="m 99.03702,215.36119 c -32.475299,3.02027 -30.346882,6.26778 -30.48305,33.39681 h 63.34288 c 0,-6.70248 -0.003,-39.35622 -0.003,-56.68626 -0.60224,19.43583 -7.31863,20.91436 -32.85665,23.28945 z"
         inkscape:connector-curvature="0"
         sodipodi:nodetypes="ccccsc" />
      <path
         id="path4161-6-7-4-5-8-3"
         style="font-weight:normal;font-size:40.35129929px;font-family:CastleT;clip-rule:evenodd;fill:#0093dd;fill-opacity:1;fill-rule:evenodd;stroke-width:0.45048526;image-rendering:optimizeQuality;shape-rendering:geometricPrecision;text-rendering:geometricPrecision"
         d="m 125.4904,193.31996 v 1.50002 c -1.11244,-0.75741 -2.21303,-1.13611 -3.30178,-1.13611 -1.18344,0 -2.13908,0.40237 -2.8669,1.20711 -0.45562,0.50296 -0.76626,1.05623 -0.93195,1.65978 -0.2071,0.72781 -0.31066,1.53255 -0.31066,2.41422 0,1.81659 0.40828,3.16866 1.22487,4.05623 0.68638,0.7515 1.58876,1.12723 2.70712,1.12723 0.65089,0 1.27514,-0.16863 1.87279,-0.50591 v -4.73081 c 0,-0.21893 -0.0237,-0.4142 -0.071,-0.5858 h 2.11243 c -0.0474,0.18343 -0.071,0.37871 -0.071,0.5858 v 4.65979 c 0.006,0.27221 0.0444,0.5148 0.11539,0.72782 -1.08878,0.35504 -1.88463,0.58284 -2.38759,0.68344 -0.49706,0.10059 -1.09468,0.15089 -1.79291,0.15089 -1.26036,0 -2.28996,-0.22485 -3.08878,-0.67456 -0.95858,-0.53847 -1.67753,-1.32842 -2.15683,-2.36983 -0.42012,-0.91126 -0.63018,-1.96156 -0.63018,-3.15092 0,-2.11244 0.65681,-3.73967 1.97043,-4.88169 1.05919,-0.92901 2.46452,-1.3935 4.21602,-1.3935 1.06508,0 2.19526,0.21894 3.39053,0.6568 z m -16.30485,6.42609 v 4.62429 c 0,0.1716 0.0296,0.36687 0.0887,0.58581 h -2.19232 c 0.0533,-0.18345 0.0798,-0.3787 0.0798,-0.58581 v -10.93499 c 0,-0.21894 -0.0266,-0.41717 -0.0798,-0.59467 h 3.87873 c 0.94675,0 1.74853,0.18934 2.40535,0.56804 1.00592,0.59172 1.50888,1.51777 1.50888,2.77813 0,1.39646 -0.61243,2.40238 -1.8373,3.01778 -0.71598,0.36095 -1.57101,0.54142 -2.5651,0.54142 z m 0,-0.93196 h 1.08285 c 0.59172,0 1.06805,-0.10651 1.429,-0.31953 0.3432,-0.2071 0.61539,-0.5148 0.81658,-0.92308 0.20118,-0.40829 0.30177,-0.86095 0.30177,-1.35801 0,-0.76923 -0.21301,-1.37279 -0.63905,-1.81066 -0.42012,-0.44379 -1.00001,-0.66568 -1.73966,-0.66568 h -1.25149 z m -6.43496,6.14206 v -1.29588 c -0.33729,0.46154 -0.66274,0.79291 -0.97634,0.9941 -0.49706,0.31361 -1.12131,0.47041 -1.872804,0.47041 -1.011852,0 -1.789962,-0.28698 -2.334342,-0.86096 -0.44971,-0.47338 -0.67458,-1.1568 -0.67458,-2.05028 v -6.14208 c 0,-0.20118 -0.0237,-0.39349 -0.071,-0.57693 h 1.99707 c -0.0474,0.16569 -0.071,0.358 -0.071,0.57693 v 5.93792 c 0,0.50888 0.1213,0.9142 0.3639,1.21598 0.31953,0.38461 0.798832,0.57694 1.437896,0.57694 0.64498,0 1.16568,-0.18345 1.56214,-0.5503 0.40237,-0.37279 0.60356,-0.85504 0.60356,-1.44676 v -5.73378 c 0,-0.2071 -0.0237,-0.39941 -0.071,-0.57693 h 1.99705 c -0.0474,0.15385 -0.071,0.34617 -0.071,0.57693 v 8.29888 c 0,0.18935 0.0237,0.38462 0.071,0.58581 z m -16.082986,-9.46162 h 1.89054 v 1.3225 c 0.28403,-0.44379 0.57101,-0.76923 0.86096,-0.97633 0.54438,-0.37871 1.23374,-0.56806 2.06807,-0.56806 1.07692,0 1.89349,0.3284 2.44971,0.98522 0.35504,0.42012 0.53255,1.00592 0.53255,1.75741 v 6.35507 c 0,0.19528 0.0237,0.39053 0.071,0.58581 h -1.99706 c 0.0474,-0.14794 0.071,-0.3432 0.071,-0.58581 v -6.07992 c 0,-0.53847 -0.1568,-0.95563 -0.47041,-1.25149 -0.31362,-0.29587 -0.76037,-0.4438 -1.34025,-0.4438 -0.7219,0 -1.26628,0.20119 -1.63314,0.60357 -0.38463,0.42603 -0.57694,0.97338 -0.57694,1.64202 v 5.52962 c 0,0.20711 0.0237,0.40236 0.071,0.58581 h -1.99705 c 0.0474,-0.1716 0.071,-0.36688 0.071,-0.58581 v -8.29888 c 0,-0.20118 -0.0237,-0.39349 -0.071,-0.57693 z m -2.60949,-2.17457 v 1.50002 c -1.11243,-0.75741 -2.21304,-1.13611 -3.301807,-1.13611 -1.183436,0 -2.139068,0.40237 -2.866889,1.20711 -0.455622,0.50296 -0.766278,1.05623 -0.931959,1.65978 -0.207104,0.72781 -0.310656,1.53255 -0.310656,2.41422 0,1.81659 0.408292,3.16866 1.224866,4.05623 0.686399,0.7515 1.588775,1.12723 2.707124,1.12723 0.650891,0 1.275161,-0.16863 1.872791,-0.50591 v -4.73081 c 0,-0.21893 -0.0237,-0.4142 -0.071,-0.5858 h 2.11244 c -0.0474,0.18343 -0.071,0.37871 -0.071,0.5858 v 4.65979 c 0.006,0.27221 0.0444,0.5148 0.11539,0.72782 -1.08877,0.35504 -1.88463,0.58284 -2.3876,0.68344 -0.49704,0.10059 -1.094676,0.15089 -1.792917,0.15089 -1.260364,0 -2.289949,-0.22485 -3.088775,-0.67456 -0.95859,-0.53847 -1.677529,-1.32842 -2.156824,-2.36983 -0.420124,-0.91126 -0.630186,-1.96156 -0.630186,-3.15092 0,-2.11244 0.656818,-3.73967 1.970436,-4.88169 1.059176,-0.92901 2.464514,-1.3935 4.216004,-1.3935 1.065102,0 2.195292,0.21894 3.390562,0.6568 z"
         inkscape:connector-curvature="0"
         sodipodi:nodetypes="ccsccscscsccscccsccscsccsccsscscscsccscsscscccccscssccsscscssccssccccccscssccsssscssccsscccsccscscsccscccsccscsc" />
      <text
         transform="scale(0.92793861,1.0776575)"
         id="text4513-9-2-6"
         y="122.11356"
         x="108.00305"
         style="font-style:normal;font-variant:normal;font-weight:normal;font-stretch:normal;font-size:6.58728409px;line-height:125%;font-family:Bungee;-inkscape-font-specification:Bungee;text-align:center;letter-spacing:0px;word-spacing:0px;text-anchor:middle;fill:#f7f7f7;fill-opacity:1;stroke:none;stroke-width:0.27447018px;stroke-linecap:butt;stroke-linejoin:miter;stroke-opacity:1"
         xml:space="preserve"><tspan
           id="tspan7238"
           style="text-align:center;text-anchor:middle;fill:#f7f7f7;fill-opacity:1;stroke-width:0.27447018px"
           y="122.11356"
           x="108.00305"
           sodipodi:role="line">support online<tspan
   id="tspan6835-9"
   style="text-align:center;letter-spacing:0.5291667px;text-anchor:middle"></tspan></tspan><tspan
           id="tspan7243"
           style="text-align:center;text-anchor:middle;fill:#f7f7f7;fill-opacity:1;stroke-width:0.27447018px"
           y="130.34767"
           x="108.00305"
           sodipodi:role="line"><tspan
   id="tspan7245"
   style="text-align:center;letter-spacing:0.5291667px;text-anchor:middle">privacy</tspan>  now!</tspan></text>
      <text
         id="text4536-5-9-4"
         y="226.28905"
         x="100.32907"
         style="font-style:normal;font-variant:normal;font-weight:normal;font-stretch:normal;font-size:4.82573462px;line-height:125%;font-family:'Libre Baskerville';-inkscape-font-specification:'Libre Baskerville';text-align:center;letter-spacing:0px;word-spacing:0px;text-anchor:middle;fill:#f7f7f7;fill-opacity:1;stroke:none;stroke-width:0.2262063px;stroke-linecap:butt;stroke-linejoin:miter;stroke-opacity:1"
         xml:space="preserve"><tspan
           id="tspan4612-7-4-8"
           style="font-style:normal;font-variant:normal;font-weight:600;font-stretch:normal;font-size:5.42895126px;font-family:Raleway;-inkscape-font-specification:'Raleway Semi-Bold';text-align:center;text-anchor:middle;fill:#f7f7f7;fill-opacity:1;stroke-width:0.2262063px"
           y="226.28905"
           x="100.363"
           sodipodi:role="line">Trusted by <tspan
   id="tspan4668-3-0-1"
   style="font-style:normal;font-variant:normal;font-weight:800;font-stretch:normal;font-family:Raleway;-inkscape-font-specification:'Raleway Ultra-Bold';text-align:center;letter-spacing:0.0678619px;text-anchor:middle;fill:#f7f7f7;fill-opacity:1;stroke-width:0.2262063px">activists,</tspan></tspan><tspan
           id="tspan4631-2-1-2"
           style="font-style:normal;font-variant:normal;font-weight:600;font-stretch:normal;font-size:5.42895126px;font-family:Raleway;-inkscape-font-specification:'Raleway Semi-Bold';text-align:center;text-anchor:middle;fill:#f7f7f7;fill-opacity:1;stroke-width:0.2262063px"
           y="232.59149"
           x="100.32907"
           sodipodi:role="line"><tspan
   id="tspan7264"
   style="font-style:normal;font-variant:normal;font-weight:800;font-stretch:normal;font-family:Raleway;-inkscape-font-specification:'Raleway Ultra-Bold';text-align:center;letter-spacing:0.0678619px;text-anchor:middle;fill:#f7f7f7;fill-opacity:1;stroke-width:0.2262063px">journalists </tspan>and</tspan><tspan
           id="tspan7270"
           style="font-style:normal;font-variant:normal;font-weight:600;font-stretch:normal;font-size:5.42895126px;font-family:Raleway;-inkscape-font-specification:'Raleway Semi-Bold';text-align:center;text-anchor:middle;fill:#f7f7f7;fill-opacity:1;stroke-width:0.2262063px"
           y="238.89395"
           x="100.32907"
           sodipodi:role="line"><tspan
   id="tspan7274"
   style="font-style:normal;font-variant:normal;font-weight:800;font-stretch:normal;font-family:Raleway;-inkscape-font-specification:'Raleway Ultra-Bold';text-align:center;letter-spacing:0.0678619px;text-anchor:middle;fill:#f7f7f7;fill-opacity:1;stroke-width:0.2262063px">lawyers </tspan>around</tspan><tspan
           id="tspan7280"
           style="font-style:normal;font-variant:normal;font-weight:600;font-stretch:normal;font-size:5.42895126px;font-family:Raleway;-inkscape-font-specification:'Raleway Semi-Bold';text-align:center;text-anchor:middle;fill:#f7f7f7;fill-opacity:1;stroke-width:0.2262063px"
           y="245.1964"
           x="100.32907"
           sodipodi:role="line">the world.</tspan></text>
      <path
         sodipodi:nodetypes="ccsssccccccccccccccccccccccccccccccccccccccccccccccccccccccccccccccccccccccccccccccccccccccccccccccccccccccccccccccccccccccccccccccccsssccccscscccccccccccc"
         inkscape:connector-curvature="0"
         d="m 85.703861,168.10594 2.04213,7.4e-4 9.1e-4,-6.14709 c 9.1e-4,-6.89109 5.59158,-12.47841 12.482609,-12.47677 6.89122,0.001 12.47818,5.59157 12.47654,12.48267 l -8e-4,6.08638 c -0.0298,0.0206 -0.0588,0.0408 -0.0879,0.0605 h 1.8e-4 l -0.0185,0.0138 -7.9e-4,9e-4 -8e-4,9e-4 -7.9e-4,8.9e-4 -0.009,0.005 -0.0102,0.008 -7.9e-4,9e-4 -0.0122,0.008 -5.3e-4,4.5e-4 -0.005,0.004 -0.004,0.004 -0.005,0.005 -7.9e-4,6.9e-4 -0.008,0.005 -8e-5,-2e-5 -0.008,0.005 -0.009,0.005 -0.005,0.005 -0.005,0.004 -0.004,0.004 -0.0102,0.008 -0.0102,0.008 -5.3e-4,3.5e-4 -0.0138,0.009 -0.004,0.004 -0.0174,0.0102 -7.9e-4,6.8e-4 -0.008,0.005 -1.8e-4,1.7e-4 -0.004,9e-4 -0.0221,0.0153 -0.004,0.004 -0.005,0.005 -7.9e-4,9e-4 -8e-4,9e-4 -0.0122,0.008 -7.9e-4,6.6e-4 -2.7e-4,2.1e-4 -7.9e-4,4.3e-4 -0.0138,0.008 -0.004,9e-4 -0.005,0.004 -0.005,0.004 -0.004,0.004 -0.008,0.005 -0.005,0.005 -5.3e-4,2e-4 -0.008,0.005 -7.9e-4,5e-4 -0.005,0.005 -8e-4,9e-4 -0.005,0.005 -0.004,0.004 -0.004,0.004 -0.005,0.004 -0.004,9e-4 -0.0378,0.0247 -0.008,0.005 -7.9e-4,9e-4 -0.0201,0.0138 -7.9e-4,7.2e-4 -0.0227,0.0138 -5.3e-4,3.4e-4 -8e-4,7.1e-4 -0.005,0.005 -2.6e-4,2.1e-4 -0.005,0.005 -8e-4,4.3e-4 -0.005,0.005 -0.005,0.005 -7.9e-4,4.7e-4 -0.004,0.004 -0.009,0.005 -0.005,0.005 -0.008,0.005 -0.0225,0.0138 -0.0225,0.0138 -0.0225,0.0138 -0.0225,0.0138 -0.0452,0.0266 -0.0231,0.0138 -0.0227,0.0138 -0.009,0.005 -0.0599,0.0339 -0.0238,0.0138 -0.0238,0.0138 -0.0238,0.0138 -0.0309,0.0183 -0.0402,0.0227 -0.0238,0.0138 -0.093,0.0517 -0.005,0.004 -0.0244,0.0138 -0.0244,0.0138 -0.005,0.004 -0.0326,0.0175 -0.073,0.0405 -0.0348,0.0186 c -0.0355,0.019 -0.0708,0.0378 -0.10657,0.0572 l -0.009,0.005 -0.0166,0.008 -0.0521,0.0273 -0.0265,0.0138 -0.005,0.004 -0.0479,0.0252 -1.8e-4,1.4e-4 -0.0265,0.0138 -0.008,0.005 -0.0457,0.0238 -0.027,0.0138 -0.0248,0.0138 c -0.0334,0.0171 -0.0674,0.0348 -0.10184,0.052 l -0.0278,0.0138 c -0.0401,0.0205 -0.0808,0.041 -0.12188,0.0608 l -4e-4,1.5e-4 c -0.0396,0.0199 -0.0787,0.0391 -0.11883,0.0588 l -0.0396,0.0192 c -0.0437,0.021 -0.0872,0.0425 -0.13167,0.0635 l -2.1e-4,2e-5 c -2.47803,1.18354 -6.45281,2.44224 -13.998026,2.98208 -5.40522,0.38704 -8.68251,2.76528 -10.82042,5.63589 l 0.004,-9.79622 z m 7.79047,8.9e-4 13.462539,0.004 9e-4,-6.14708 c 7.1e-4,-3.71714 -3.01265,-6.7321 -6.72965,-6.73298 -3.716929,-7e-4 -6.732029,3.01266 -6.732889,6.72982 z m 17.438879,0.97362 c -0.0401,0.0205 -0.0808,0.0404 -0.12189,0.0608 m -4.92863,-16.63876 c -1.60013,-0.95667 -3.47093,-1.50728 -5.47016,-1.50775 -5.480169,-0.001 -9.998319,4.12655 -10.614059,9.4419 1.60772,-5.02585 6.3179,-8.66562 11.876479,-8.66431 1.47654,3.5e-4 2.89316,0.25824 4.20774,0.73016 z m 8.86427,17.96272 -0.005,17.61443 -24.848008,-0.005 c 2.73949,-1.52228 4.78084,-1.36672 8.16189,-1.259 4.604248,0.14678 9.692298,-1.78096 12.194988,-4.33434 2.50299,-2.55365 -0.22628,-0.6044 -3.05914,0.1135 -2.83326,0.7175 -8.315238,0.79269 -11.979358,-0.17137 11.541098,0.16011 16.033618,-3.57221 18.585138,-6.91512 2.55137,-3.34283 -1.10304,-0.58072 -3.47031,0.57132 -2.36715,1.15307 -6.49539,1.97632 -11.034505,1.3742 6.871025,-0.0122 12.099825,-3.44502 15.453445,-6.98777 z"
         style="font-weight:normal;font-size:40.35129929px;font-family:CastleT;clip-rule:evenodd;fill:#0093dd;fill-opacity:1;fill-rule:evenodd;stroke-width:0.71938753;image-rendering:optimizeQuality;shape-rendering:geometricPrecision;text-rendering:geometricPrecision"
         id="path4161-3-0-0-7-9" />
    </g>
  </g>
</svg>
