<svg xmlns="http://www.w3.org/2000/svg" width="243" height="256" viewBox="0 0 243 256"><g transform="translate(0 -142.26666)"><path class="fil0" d="m24.2 266h13.6v-40.8c0-45.8 37.1-82.9 82.9-82.9 45.8 0 82.9 37.1 82.9 82.9v40.4c-0.2 0.1-0.4 0.3-0.6 0.4h0l-0.1 0.1 0 0 0 0 0 0-0.1 0.1 0 0 0 0 0 0 0 0 0 0 0 0-0.1 0 0 0 0 0 0 0-0.1 0.1 0 0 0 0 0 0 0 0 0 0 0 0 0 0-0.1 0.1-0.1 0 0 0 0 0 0 0-0.1 0 0 0-0.1 0 0 0 0 0 0 0 0 0 0 0-0.2 0.2-0.1 0 0 0 0 0 0 0-0.1 0 0 0 0 0 0 0 0 0 0 0 0 0 0 0 0 0 0 0 0 0 0 0 0 0 0 0 0 0 0 0 0 0-0.2 0.1 0 0-0.1 0 0 0-0.1 0.1 0 0 0 0 0 0 0 0-0.1 0.1 0 0 0 0 0 0 0 0 0 0-0.1 0 0 0 0 0 0 0 0 0 0 0 0 0 0 0 0 0 0 0 0 0-0.1 0.1-0.1 0.1-0.1 0.1-0.1 0.1 0 0-0.3 0.2 0 0-0.2 0.1-0.3 0.2-0.2 0.1-0.2 0.1-0.3 0.2-0.2 0.1-0.1 0.1 0 0 0 0-0.3 0.2-0.2 0.1-0.5 0.3-0.2 0.1-0.2 0.1 0 0-0.2 0.1 0 0-0.1 0 0 0-0.6 0.3 0 0-0.1 0-0.1 0c-0.2 0.1-0.4 0.2-0.7 0.4l-0.1 0-0.1 0.1-0.3 0.2-0.2 0.1 0 0-0.3 0.2 0 0-0.2 0.1-0.1 0-0.3 0.2-0.2 0.1-0.2 0.1c-0.2 0.1-0.5 0.2-0.7 0.3l-0.2 0.1 0 0-0.2 0.1-0.4 0.2-0.4 0.2-0.5 0.2-0.5 0.2 0 0-0.2 0.1 0 0-0.4 0.2-0.2 0.1 0 0v0c-16.5 7.9-42.9 16.2-93 19.8-35.9 2.6-57.7 18.4-71.8 37.4zm51.7 0h89.4v-40.8c0-24.7-20-44.7-44.7-44.7-24.7 0-44.7 20-44.7 44.7zM217.1 281.6V398.6H52c18.2-10.1 31.7-9.1 54.2-8.4 30.6 1 64.4-11.8 81-28.8 16.6-17-1.5-4-20.3 0.8-18.8 4.8-55.2 5.3-79.6-1.1 76.6 1 106.5-23.7 123.4-46 16.9-22.2-7.3-3.9-23 3.8-15.7 7.7-43.1 13.1-73.3 9.1 45.6-0.1 80.3-22.9 102.6-46.4z" style="fill:#0093dd;stroke-width:6"/></g></svg>
