<svg xmlns="http://www.w3.org/2000/svg" width="243" height="256" viewBox="0 0 243 256"><g transform="matrix(0.80225518,0,0,1,-0.01977448,-142.26666)"><path d="M 27.5,397.9 -0.1,341.4 C 11.3,295 30.7,229.7 93.5,223.2 c 62.8,-6.5 88.2,-23.9 103.6,-37.1 15.4,-13.2 54.9,-69.9 41.4,-29.5 -13.5,40.3 -57.6,116.2 -126.7,116.4 30.1,5.8 57.4,-2.1 73.1,-13.2 15.7,-11.1 39.9,-37.6 23,-5.5 -16.9,32.1 -46.6,67.9 -123.1,66.4 24.3,9.2 60.6,8.5 79.4,1.6 18.8,-6.9 36.8,-25.6 20.3,-1.1 -16.6,24.5 -50.3,43 -80.8,41.6 -30.5,-1.4 -44.5,-3.7 -76.2,35.1 z" style="fill:#0093dd;stroke-width:6" /></g></svg>
